# xmcd
#
# Track frame offsets: 
#        150
#        15553
#        29554
#        76971
#        92882
#        116168
#        130926
#        132675
#        134091
#        148626
#        161029
#        188991
#
# Disc length: 2758 seconds
#
# Revision: 0
# Processed by: cddbd v1.5.2PL0 Copyright (c) Steve Scherf et al.
# Submitted via: ExactAudioCopy v1.0b4
#
DISCID=b50ac40c
DTITLE=Eddie Hinton And The Nighthawks - Rosa Cantina, Altanta '79
DYEAR=2017
DGENRE=Blues
TTITLE0=My Lover's Prayer
TTITLE1=634-57-89
TTITLE2=Get Off In It
TTITLE3=True Fine Mama
TTITLE4=Brand New Man
TTITLE5=A Change Is Gonna Come
TTITLE6=Sitting On The Dock Of The Bay
TTITLE7=Radio Announcement
TTITLE8=Sitting On The Dock Of The Bay
TTITLE9=Shout Bamalama
TTITLE10=Crawling King Snake
TTITLE11=Can't Turn You Loose
EXTD=
EXTT0=
EXTT1=
EXTT2=
EXTT3=
EXTT4=
EXTT5=
EXTT6=
EXTT7=
EXTT8=
EXTT9=
EXTT10=
EXTT11=
PLAYORDER=
